<mxfile host="www.draw.io" modified="2019-11-28T22:13:26.677Z" agent="Mozilla/5.0 (Macintosh; Intel Mac OS X 10_15_1) AppleWebKit/537.36 (KHTML, like Gecko) Chrome/78.0.3904.97 Safari/537.36" etag="k68LedUsdU92MlMJ9hR9" version="12.3.3" type="github" pages="2">
  <diagram id="K4wMHPnTyLa_r8VK1oMd" name="Page-1">
    <mxGraphModel dx="1186" dy="764" grid="1" gridSize="10" guides="1" tooltips="1" connect="1" arrows="1" fold="1" page="1" pageScale="1" pageWidth="850" pageHeight="1100" math="0" shadow="0">
      <root>
        <mxCell id="0"/>
        <mxCell id="1" parent="0"/>
        <mxCell id="uu-ip6SM8MM5HzYD_lE7-3" style="edgeStyle=orthogonalEdgeStyle;rounded=0;orthogonalLoop=1;jettySize=auto;html=1;exitX=0.5;exitY=1;exitDx=0;exitDy=0;entryX=0.5;entryY=0;entryDx=0;entryDy=0;strokeWidth=2;fontSize=14;fontColor=#E6E6E6;" edge="1" parent="1" source="uu-ip6SM8MM5HzYD_lE7-5" target="uu-ip6SM8MM5HzYD_lE7-51">
          <mxGeometry relative="1" as="geometry"/>
        </mxCell>
        <mxCell id="uu-ip6SM8MM5HzYD_lE7-4" style="edgeStyle=orthogonalEdgeStyle;rounded=0;orthogonalLoop=1;jettySize=auto;html=1;exitX=0;exitY=0.5;exitDx=0;exitDy=0;dashed=1;dashPattern=1 2;strokeWidth=2;fontSize=14;fontColor=#E6E6E6;fillColor=#e51400;strokeColor=#B20000;" edge="1" parent="1" source="uu-ip6SM8MM5HzYD_lE7-5">
          <mxGeometry relative="1" as="geometry">
            <mxPoint x="120" y="368" as="targetPoint"/>
            <Array as="points">
              <mxPoint x="120" y="200"/>
              <mxPoint x="120" y="368"/>
            </Array>
          </mxGeometry>
        </mxCell>
        <mxCell id="uu-ip6SM8MM5HzYD_lE7-5" value="" style="rounded=1;whiteSpace=wrap;html=1;strokeWidth=1;fontSize=20;fillColor=#cdeb8b;strokeColor=#36393d;" vertex="1" parent="1">
          <mxGeometry x="161" y="160" width="160" height="82" as="geometry"/>
        </mxCell>
        <mxCell id="uu-ip6SM8MM5HzYD_lE7-6" value="Live" style="text;html=1;strokeColor=none;fillColor=none;align=center;verticalAlign=middle;whiteSpace=wrap;rounded=0;fontSize=20;" vertex="1" parent="1">
          <mxGeometry x="220" y="180" width="40" height="22" as="geometry"/>
        </mxCell>
        <mxCell id="uu-ip6SM8MM5HzYD_lE7-7" style="edgeStyle=orthogonalEdgeStyle;rounded=0;orthogonalLoop=1;jettySize=auto;html=1;exitX=0.5;exitY=1;exitDx=0;exitDy=0;entryX=0.5;entryY=0;entryDx=0;entryDy=0;fontSize=14;fontColor=#E6E6E6;strokeWidth=2;" edge="1" parent="1" target="uu-ip6SM8MM5HzYD_lE7-20">
          <mxGeometry relative="1" as="geometry">
            <mxPoint x="272.5882352941178" y="429.7058823529412" as="sourcePoint"/>
            <Array as="points">
              <mxPoint x="200" y="430"/>
              <mxPoint x="200" y="490"/>
              <mxPoint x="124" y="490"/>
            </Array>
          </mxGeometry>
        </mxCell>
        <mxCell id="uu-ip6SM8MM5HzYD_lE7-8" style="edgeStyle=orthogonalEdgeStyle;rounded=0;orthogonalLoop=1;jettySize=auto;html=1;exitX=0.5;exitY=1;exitDx=0;exitDy=0;entryX=0.5;entryY=0;entryDx=0;entryDy=0;fontSize=14;fontColor=#E6E6E6;strokeWidth=2;" edge="1" parent="1" target="uu-ip6SM8MM5HzYD_lE7-26">
          <mxGeometry relative="1" as="geometry">
            <mxPoint x="272.5882352941178" y="429.7058823529412" as="sourcePoint"/>
            <Array as="points">
              <mxPoint x="220" y="430"/>
              <mxPoint x="220" y="510"/>
              <mxPoint x="205" y="510"/>
            </Array>
          </mxGeometry>
        </mxCell>
        <mxCell id="uu-ip6SM8MM5HzYD_lE7-9" style="edgeStyle=orthogonalEdgeStyle;rounded=0;orthogonalLoop=1;jettySize=auto;html=1;exitX=0.5;exitY=1;exitDx=0;exitDy=0;entryX=0.5;entryY=0;entryDx=0;entryDy=0;fontSize=14;fontColor=#E6E6E6;strokeWidth=2;" edge="1" parent="1" target="uu-ip6SM8MM5HzYD_lE7-17">
          <mxGeometry relative="1" as="geometry">
            <mxPoint x="272.5882352941178" y="429.7058823529412" as="sourcePoint"/>
            <Array as="points">
              <mxPoint x="241" y="430"/>
              <mxPoint x="241" y="530"/>
              <mxPoint x="276" y="530"/>
            </Array>
          </mxGeometry>
        </mxCell>
        <mxCell id="uu-ip6SM8MM5HzYD_lE7-10" style="edgeStyle=orthogonalEdgeStyle;rounded=0;orthogonalLoop=1;jettySize=auto;html=1;exitX=0.5;exitY=1;exitDx=0;exitDy=0;fontSize=14;fontColor=#E6E6E6;entryX=0.5;entryY=0;entryDx=0;entryDy=0;strokeWidth=2;" edge="1" parent="1" target="uu-ip6SM8MM5HzYD_lE7-38">
          <mxGeometry relative="1" as="geometry">
            <mxPoint x="272.5882352941178" y="429.7058823529412" as="sourcePoint"/>
            <mxPoint x="440" y="580" as="targetPoint"/>
            <Array as="points">
              <mxPoint x="280" y="430"/>
              <mxPoint x="280" y="480"/>
              <mxPoint x="425" y="480"/>
            </Array>
          </mxGeometry>
        </mxCell>
        <mxCell id="uu-ip6SM8MM5HzYD_lE7-11" style="edgeStyle=orthogonalEdgeStyle;rounded=0;orthogonalLoop=1;jettySize=auto;html=1;exitX=0.5;exitY=1;exitDx=0;exitDy=0;entryX=0.5;entryY=0;entryDx=0;entryDy=0;fontSize=14;fontColor=#E6E6E6;strokeWidth=2;" edge="1" parent="1" target="uu-ip6SM8MM5HzYD_lE7-23">
          <mxGeometry relative="1" as="geometry">
            <mxPoint x="272.5882352941178" y="429.7058823529412" as="sourcePoint"/>
            <Array as="points">
              <mxPoint x="260" y="430"/>
              <mxPoint x="260" y="500"/>
              <mxPoint x="350" y="500"/>
              <mxPoint x="350" y="610"/>
              <mxPoint x="370" y="610"/>
            </Array>
          </mxGeometry>
        </mxCell>
        <mxCell id="uu-ip6SM8MM5HzYD_lE7-12" style="edgeStyle=orthogonalEdgeStyle;rounded=0;orthogonalLoop=1;jettySize=auto;html=1;exitX=0.5;exitY=0;exitDx=0;exitDy=0;entryX=0.5;entryY=1;entryDx=0;entryDy=0;strokeWidth=2;fontSize=14;fontColor=#E6E6E6;" edge="1" parent="1" source="uu-ip6SM8MM5HzYD_lE7-13" target="uu-ip6SM8MM5HzYD_lE7-64">
          <mxGeometry relative="1" as="geometry"/>
        </mxCell>
        <mxCell id="uu-ip6SM8MM5HzYD_lE7-13" value="" style="rounded=1;whiteSpace=wrap;html=1;strokeWidth=1;fontSize=20;fillColor=#ffcc99;strokeColor=#36393d;" vertex="1" parent="1">
          <mxGeometry x="609" y="380" width="181" height="142" as="geometry"/>
        </mxCell>
        <mxCell id="uu-ip6SM8MM5HzYD_lE7-14" value="&lt;font style=&quot;font-size: 18px&quot;&gt;master&lt;/font&gt;" style="text;html=1;strokeColor=none;fillColor=none;align=center;verticalAlign=middle;whiteSpace=wrap;rounded=0;fontSize=20;" vertex="1" parent="1">
          <mxGeometry x="669" y="393" width="62" height="22" as="geometry"/>
        </mxCell>
        <mxCell id="uu-ip6SM8MM5HzYD_lE7-15" value="Latest live code v6...." style="text;html=1;strokeColor=none;fillColor=none;align=center;verticalAlign=middle;whiteSpace=wrap;rounded=0;fontSize=15;rotation=0;" vertex="1" parent="1">
          <mxGeometry x="161" y="289.5" width="79" height="22" as="geometry"/>
        </mxCell>
        <mxCell id="uu-ip6SM8MM5HzYD_lE7-16" style="edgeStyle=orthogonalEdgeStyle;rounded=0;orthogonalLoop=1;jettySize=auto;html=1;exitX=0.5;exitY=1;exitDx=0;exitDy=0;entryX=0;entryY=0.25;entryDx=0;entryDy=0;strokeWidth=2;fontSize=14;fontColor=#E6E6E6;" edge="1" parent="1" source="uu-ip6SM8MM5HzYD_lE7-17" target="uu-ip6SM8MM5HzYD_lE7-74">
          <mxGeometry relative="1" as="geometry"/>
        </mxCell>
        <mxCell id="uu-ip6SM8MM5HzYD_lE7-17" value="" style="ellipse;whiteSpace=wrap;html=1;strokeWidth=1;fontSize=15;fillColor=#fff2cc;strokeColor=#d6b656;" vertex="1" parent="1">
          <mxGeometry x="231" y="570" width="90" height="62" as="geometry"/>
        </mxCell>
        <mxCell id="uu-ip6SM8MM5HzYD_lE7-18" value="&lt;font style=&quot;font-size: 17px&quot;&gt;Feature A&lt;/font&gt;" style="text;html=1;strokeColor=none;fillColor=none;align=center;verticalAlign=middle;whiteSpace=wrap;rounded=0;fontSize=15;" vertex="1" parent="1">
          <mxGeometry x="233" y="590" width="84" height="22" as="geometry"/>
        </mxCell>
        <mxCell id="uu-ip6SM8MM5HzYD_lE7-19" style="edgeStyle=orthogonalEdgeStyle;rounded=0;orthogonalLoop=1;jettySize=auto;html=1;exitX=0.5;exitY=1;exitDx=0;exitDy=0;strokeWidth=2;fontSize=14;fontColor=#E6E6E6;" edge="1" parent="1" source="uu-ip6SM8MM5HzYD_lE7-20" target="uu-ip6SM8MM5HzYD_lE7-44">
          <mxGeometry relative="1" as="geometry"/>
        </mxCell>
        <mxCell id="uu-ip6SM8MM5HzYD_lE7-20" value="" style="ellipse;whiteSpace=wrap;html=1;strokeWidth=1;fontSize=15;fillColor=#eeeeee;strokeColor=#36393d;" vertex="1" parent="1">
          <mxGeometry x="79" y="530" width="90" height="62" as="geometry"/>
        </mxCell>
        <mxCell id="uu-ip6SM8MM5HzYD_lE7-21" value="&lt;font style=&quot;font-size: 17px&quot;&gt;Sprint 1&lt;/font&gt;" style="text;html=1;strokeColor=none;fillColor=none;align=center;verticalAlign=middle;whiteSpace=wrap;rounded=0;fontSize=15;" vertex="1" parent="1">
          <mxGeometry x="85" y="550" width="75" height="22" as="geometry"/>
        </mxCell>
        <mxCell id="uu-ip6SM8MM5HzYD_lE7-22" style="edgeStyle=orthogonalEdgeStyle;rounded=0;orthogonalLoop=1;jettySize=auto;html=1;exitX=0.5;exitY=1;exitDx=0;exitDy=0;strokeWidth=2;fontSize=14;fontColor=#E6E6E6;" edge="1" parent="1" source="uu-ip6SM8MM5HzYD_lE7-23">
          <mxGeometry relative="1" as="geometry">
            <mxPoint x="370" y="880" as="targetPoint"/>
          </mxGeometry>
        </mxCell>
        <mxCell id="uu-ip6SM8MM5HzYD_lE7-23" value="" style="ellipse;whiteSpace=wrap;html=1;strokeWidth=1;fontSize=15;fillColor=#b0e3e6;strokeColor=#0e8088;" vertex="1" parent="1">
          <mxGeometry x="325" y="651" width="90" height="62" as="geometry"/>
        </mxCell>
        <mxCell id="uu-ip6SM8MM5HzYD_lE7-24" value="&lt;font style=&quot;font-size: 17px&quot;&gt;Project A&lt;/font&gt;" style="text;html=1;strokeColor=none;fillColor=none;align=center;verticalAlign=middle;whiteSpace=wrap;rounded=0;fontSize=15;" vertex="1" parent="1">
          <mxGeometry x="332.5" y="671" width="75" height="22" as="geometry"/>
        </mxCell>
        <mxCell id="uu-ip6SM8MM5HzYD_lE7-25" style="edgeStyle=orthogonalEdgeStyle;rounded=0;orthogonalLoop=1;jettySize=auto;html=1;exitX=0.5;exitY=1;exitDx=0;exitDy=0;entryX=0;entryY=0.5;entryDx=0;entryDy=0;strokeWidth=2;fontSize=14;fontColor=#E6E6E6;" edge="1" parent="1" source="uu-ip6SM8MM5HzYD_lE7-26" target="uu-ip6SM8MM5HzYD_lE7-74">
          <mxGeometry relative="1" as="geometry"/>
        </mxCell>
        <mxCell id="uu-ip6SM8MM5HzYD_lE7-26" value="" style="ellipse;whiteSpace=wrap;html=1;strokeWidth=1;fontSize=15;fillColor=#ffcccc;strokeColor=#36393d;" vertex="1" parent="1">
          <mxGeometry x="160" y="645" width="90" height="62" as="geometry"/>
        </mxCell>
        <mxCell id="uu-ip6SM8MM5HzYD_lE7-27" value="&lt;font style=&quot;font-size: 17px&quot;&gt;Issue A&lt;/font&gt;" style="text;html=1;strokeColor=none;fillColor=none;align=center;verticalAlign=middle;whiteSpace=wrap;rounded=0;fontSize=15;" vertex="1" parent="1">
          <mxGeometry x="167.5" y="665" width="75" height="22" as="geometry"/>
        </mxCell>
        <mxCell id="uu-ip6SM8MM5HzYD_lE7-28" style="edgeStyle=orthogonalEdgeStyle;rounded=0;orthogonalLoop=1;jettySize=auto;html=1;exitX=0.5;exitY=0;exitDx=0;exitDy=0;entryX=0.5;entryY=1;entryDx=0;entryDy=0;strokeWidth=2;fontSize=14;fontColor=#E6E6E6;" edge="1" parent="1" source="uu-ip6SM8MM5HzYD_lE7-29" target="uu-ip6SM8MM5HzYD_lE7-53">
          <mxGeometry relative="1" as="geometry"/>
        </mxCell>
        <mxCell id="uu-ip6SM8MM5HzYD_lE7-29" value="" style="rounded=1;whiteSpace=wrap;html=1;strokeWidth=1;fontSize=20;fillColor=#ffe6cc;strokeColor=#d79b00;" vertex="1" parent="1">
          <mxGeometry x="610" y="720" width="180" height="142" as="geometry"/>
        </mxCell>
        <mxCell id="uu-ip6SM8MM5HzYD_lE7-30" value="&lt;font style=&quot;font-size: 18px&quot;&gt;Pre-master&lt;/font&gt;" style="text;html=1;strokeColor=none;fillColor=none;align=center;verticalAlign=middle;whiteSpace=wrap;rounded=0;fontSize=20;" vertex="1" parent="1">
          <mxGeometry x="640" y="735" width="120" height="22" as="geometry"/>
        </mxCell>
        <mxCell id="uu-ip6SM8MM5HzYD_lE7-31" value="&lt;font style=&quot;font-size: 16px&quot;&gt;QA level&lt;/font&gt;" style="text;html=1;strokeColor=#666666;fillColor=#f5f5f5;align=center;verticalAlign=middle;whiteSpace=wrap;rounded=0;fontSize=14;fontColor=#333333;fontStyle=0" vertex="1" parent="1">
          <mxGeometry x="620" y="766" width="160" height="22" as="geometry"/>
        </mxCell>
        <mxCell id="uu-ip6SM8MM5HzYD_lE7-32" value="&lt;font style=&quot;font-size: 16px&quot;&gt;UAT level&lt;/font&gt;" style="text;html=1;strokeColor=#666666;fillColor=#f5f5f5;align=center;verticalAlign=middle;whiteSpace=wrap;rounded=0;fontSize=14;fontStyle=0;fontColor=#333333;" vertex="1" parent="1">
          <mxGeometry x="619" y="424" width="161" height="22" as="geometry"/>
        </mxCell>
        <mxCell id="uu-ip6SM8MM5HzYD_lE7-33" value="&lt;span style=&quot;font-size: 14px&quot;&gt;&lt;b&gt;Merge&lt;/b&gt;&amp;nbsp;and set n&lt;/span&gt;ew&amp;nbsp;&lt;b&gt;git&lt;/b&gt;&amp;nbsp;&lt;b&gt;tag&lt;/b&gt;&amp;nbsp;(version)" style="text;html=1;strokeColor=none;fillColor=none;align=center;verticalAlign=middle;whiteSpace=wrap;rounded=0;fontSize=15;" vertex="1" parent="1">
          <mxGeometry x="277" y="304" width="261" height="27" as="geometry"/>
        </mxCell>
        <mxCell id="uu-ip6SM8MM5HzYD_lE7-34" value="&lt;font style=&quot;font-size: 16px&quot;&gt;Alpha-release&lt;/font&gt;" style="text;html=1;strokeColor=#9673a6;fillColor=#e1d5e7;align=center;verticalAlign=middle;whiteSpace=wrap;rounded=0;fontSize=14;fontStyle=0" vertex="1" parent="1">
          <mxGeometry x="620" y="796" width="160" height="22" as="geometry"/>
        </mxCell>
        <mxCell id="uu-ip6SM8MM5HzYD_lE7-35" value="&lt;font style=&quot;font-size: 16px&quot;&gt;Prod-release&lt;/font&gt;" style="text;html=1;strokeColor=#82b366;fillColor=#d5e8d4;align=center;verticalAlign=middle;whiteSpace=wrap;rounded=0;fontSize=14;fontStyle=0" vertex="1" parent="1">
          <mxGeometry x="619" y="454" width="161" height="22" as="geometry"/>
        </mxCell>
        <mxCell id="uu-ip6SM8MM5HzYD_lE7-36" style="edgeStyle=orthogonalEdgeStyle;rounded=0;orthogonalLoop=1;jettySize=auto;html=1;exitX=0.939;exitY=0.71;exitDx=0;exitDy=0;fontSize=14;fontColor=#E6E6E6;strokeWidth=2;entryX=0;entryY=0.5;entryDx=0;entryDy=0;exitPerimeter=0;" edge="1" parent="1" source="uu-ip6SM8MM5HzYD_lE7-38" target="uu-ip6SM8MM5HzYD_lE7-13">
          <mxGeometry relative="1" as="geometry">
            <mxPoint x="451" y="656" as="sourcePoint"/>
            <mxPoint x="620" y="390" as="targetPoint"/>
            <Array as="points">
              <mxPoint x="570" y="553"/>
              <mxPoint x="570" y="450"/>
            </Array>
          </mxGeometry>
        </mxCell>
        <mxCell id="uu-ip6SM8MM5HzYD_lE7-37" style="edgeStyle=orthogonalEdgeStyle;rounded=0;orthogonalLoop=1;jettySize=auto;html=1;exitX=1;exitY=0.5;exitDx=0;exitDy=0;strokeWidth=2;fontSize=14;fontColor=#E6E6E6;entryX=0.713;entryY=0.988;entryDx=0;entryDy=0;entryPerimeter=0;" edge="1" parent="1" source="uu-ip6SM8MM5HzYD_lE7-38" target="uu-ip6SM8MM5HzYD_lE7-5">
          <mxGeometry relative="1" as="geometry">
            <mxPoint x="260" y="250" as="targetPoint"/>
            <Array as="points">
              <mxPoint x="540" y="540"/>
              <mxPoint x="540" y="330"/>
              <mxPoint x="275" y="330"/>
            </Array>
          </mxGeometry>
        </mxCell>
        <mxCell id="uu-ip6SM8MM5HzYD_lE7-38" value="" style="ellipse;whiteSpace=wrap;html=1;strokeWidth=1;fontSize=15;fillColor=#a20025;strokeColor=#6F0000;fontColor=#ffffff;" vertex="1" parent="1">
          <mxGeometry x="381" y="510" width="90" height="62" as="geometry"/>
        </mxCell>
        <mxCell id="uu-ip6SM8MM5HzYD_lE7-39" value="&lt;font style=&quot;font-size: 17px&quot; color=&quot;#ffffff&quot;&gt;HOTFIX&lt;/font&gt;" style="text;html=1;strokeColor=none;fillColor=none;align=center;verticalAlign=middle;whiteSpace=wrap;rounded=0;fontSize=15;fontColor=#E6E6E6;" vertex="1" parent="1">
          <mxGeometry x="388.5" y="530" width="75" height="22" as="geometry"/>
        </mxCell>
        <mxCell id="uu-ip6SM8MM5HzYD_lE7-40" value="&lt;font color=&quot;#1a1a1a&quot; style=&quot;font-size: 14px&quot;&gt;Pull request&lt;/font&gt;" style="text;html=1;strokeColor=none;fillColor=none;align=center;verticalAlign=middle;whiteSpace=wrap;rounded=0;fontSize=14;fontColor=#E6E6E6;rotation=-90;" vertex="1" parent="1">
          <mxGeometry x="71" y="881" width="83" height="22" as="geometry"/>
        </mxCell>
        <mxCell id="uu-ip6SM8MM5HzYD_lE7-41" value="&lt;font color=&quot;#2372cc&quot;&gt;&lt;span style=&quot;font-size: 23px ; font-weight: 700 ; white-space: normal&quot;&gt;cs4alhaider&amp;nbsp;&lt;/span&gt;&lt;span style=&quot;font-size: 23px ; font-weight: 700 ; white-space: normal&quot;&gt;git strategy&lt;/span&gt;&lt;/font&gt;" style="rounded=1;whiteSpace=wrap;html=1;strokeWidth=1;fontSize=14;fillColor=#dae8fc;strokeColor=#6c8ebf;" vertex="1" parent="1">
          <mxGeometry x="43" y="40" width="770" height="70" as="geometry"/>
        </mxCell>
        <mxCell id="uu-ip6SM8MM5HzYD_lE7-42" value="&lt;font style=&quot;font-size: 15px&quot;&gt;Production code&lt;/font&gt;" style="text;html=1;strokeColor=#666666;fillColor=#f5f5f5;align=center;verticalAlign=middle;whiteSpace=wrap;rounded=0;fontSize=14;fontStyle=0;fontColor=#333333;" vertex="1" parent="1">
          <mxGeometry x="171" y="210" width="140" height="22" as="geometry"/>
        </mxCell>
        <mxCell id="uu-ip6SM8MM5HzYD_lE7-43" style="edgeStyle=orthogonalEdgeStyle;rounded=0;orthogonalLoop=1;jettySize=auto;html=1;exitX=0.5;exitY=1;exitDx=0;exitDy=0;entryX=0;entryY=0.75;entryDx=0;entryDy=0;strokeWidth=2;fontSize=14;fontColor=#E6E6E6;" edge="1" parent="1" source="uu-ip6SM8MM5HzYD_lE7-44" target="uu-ip6SM8MM5HzYD_lE7-74">
          <mxGeometry relative="1" as="geometry"/>
        </mxCell>
        <mxCell id="uu-ip6SM8MM5HzYD_lE7-44" value="" style="ellipse;whiteSpace=wrap;html=1;strokeWidth=1;fontSize=15;fillColor=#eeeeee;strokeColor=#36393d;" vertex="1" parent="1">
          <mxGeometry x="79" y="760" width="90" height="62" as="geometry"/>
        </mxCell>
        <mxCell id="uu-ip6SM8MM5HzYD_lE7-45" value="&lt;font style=&quot;font-size: 17px&quot;&gt;Sprint 2&lt;/font&gt;" style="text;html=1;strokeColor=none;fillColor=none;align=center;verticalAlign=middle;whiteSpace=wrap;rounded=0;fontSize=15;" vertex="1" parent="1">
          <mxGeometry x="85" y="780" width="75" height="22" as="geometry"/>
        </mxCell>
        <mxCell id="uu-ip6SM8MM5HzYD_lE7-46" value="&lt;font style=&quot;font-size: 15px&quot;&gt;When Sprint 2 depends on sprint 1&lt;/font&gt;" style="text;html=1;strokeColor=none;fillColor=none;align=center;verticalAlign=middle;whiteSpace=wrap;rounded=0;fontSize=14;rotation=-90;" vertex="1" parent="1">
          <mxGeometry x="33" y="644" width="138" height="52" as="geometry"/>
        </mxCell>
        <mxCell id="uu-ip6SM8MM5HzYD_lE7-47" value="&lt;font style=&quot;font-size: 14px&quot;&gt;New branch&lt;/font&gt;" style="text;html=1;strokeColor=none;fillColor=none;align=center;verticalAlign=middle;whiteSpace=wrap;rounded=0;fontSize=14;rotation=0;" vertex="1" parent="1">
          <mxGeometry x="111.5" y="469" width="88" height="22" as="geometry"/>
        </mxCell>
        <mxCell id="uu-ip6SM8MM5HzYD_lE7-48" value="&lt;font style=&quot;font-size: 14px&quot;&gt;New branch&lt;/font&gt;" style="text;html=1;strokeColor=none;fillColor=none;align=center;verticalAlign=middle;whiteSpace=wrap;rounded=0;fontSize=14;rotation=-90;" vertex="1" parent="1">
          <mxGeometry x="149" y="563" width="93" height="22" as="geometry"/>
        </mxCell>
        <mxCell id="uu-ip6SM8MM5HzYD_lE7-49" value="&lt;font style=&quot;font-size: 14px&quot;&gt;New branch&lt;/font&gt;" style="text;html=1;strokeColor=none;fillColor=none;align=center;verticalAlign=middle;whiteSpace=wrap;rounded=0;fontSize=14;rotation=-90;" vertex="1" parent="1">
          <mxGeometry x="293" y="539" width="95" height="22" as="geometry"/>
        </mxCell>
        <mxCell id="uu-ip6SM8MM5HzYD_lE7-50" value="&lt;font style=&quot;font-size: 14px&quot;&gt;New branch&lt;/font&gt;" style="text;html=1;strokeColor=none;fillColor=none;align=center;verticalAlign=middle;whiteSpace=wrap;rounded=0;fontSize=14;rotation=0;" vertex="1" parent="1">
          <mxGeometry x="321" y="460" width="78" height="22" as="geometry"/>
        </mxCell>
        <mxCell id="uu-ip6SM8MM5HzYD_lE7-51" value="&lt;font style=&quot;font-size: 16px&quot;&gt;Start working&amp;nbsp;with new Projects/Sprints/Issues/CRs/Enhancements...&lt;/font&gt;" style="text;html=1;strokeColor=#82b366;fillColor=#d5e8d4;align=center;verticalAlign=middle;whiteSpace=wrap;rounded=0;fontSize=14;fontStyle=0" vertex="1" parent="1">
          <mxGeometry x="42" y="370" width="397" height="62" as="geometry"/>
        </mxCell>
        <mxCell id="uu-ip6SM8MM5HzYD_lE7-52" value="&lt;span style=&quot;font-size: 14px&quot;&gt;&lt;b&gt;Merge&lt;/b&gt; and set n&lt;/span&gt;ew &lt;b&gt;git&lt;/b&gt; &lt;b&gt;tag&lt;/b&gt; (version)" style="text;html=1;strokeColor=none;fillColor=none;align=center;verticalAlign=middle;whiteSpace=wrap;rounded=0;fontSize=15;rotation=0;" vertex="1" parent="1">
          <mxGeometry x="392.5" y="180" width="245" height="16" as="geometry"/>
        </mxCell>
        <mxCell id="uu-ip6SM8MM5HzYD_lE7-53" value="" style="rhombus;whiteSpace=wrap;html=1;strokeWidth=1;fontSize=14;fillColor=#cce5ff;strokeColor=#36393d;" vertex="1" parent="1">
          <mxGeometry x="639" y="589" width="121" height="103" as="geometry"/>
        </mxCell>
        <mxCell id="uu-ip6SM8MM5HzYD_lE7-54" style="edgeStyle=orthogonalEdgeStyle;rounded=0;orthogonalLoop=1;jettySize=auto;html=1;entryX=0;entryY=0.5;entryDx=0;entryDy=0;strokeWidth=2;fontSize=14;fontColor=#E6E6E6;dashed=1;" edge="1" parent="1" target="uu-ip6SM8MM5HzYD_lE7-20">
          <mxGeometry relative="1" as="geometry">
            <mxPoint x="820" y="650" as="sourcePoint"/>
            <Array as="points">
              <mxPoint x="820" y="630"/>
              <mxPoint x="820" y="1060"/>
              <mxPoint x="40" y="1060"/>
              <mxPoint x="40" y="560"/>
            </Array>
          </mxGeometry>
        </mxCell>
        <mxCell id="uu-ip6SM8MM5HzYD_lE7-55" style="edgeStyle=orthogonalEdgeStyle;rounded=0;orthogonalLoop=1;jettySize=auto;html=1;exitX=0;exitY=0.5;exitDx=0;exitDy=0;entryX=1;entryY=0.5;entryDx=0;entryDy=0;dashed=1;strokeWidth=2;fontSize=14;fontColor=#E6E6E6;" edge="1" parent="1" source="uu-ip6SM8MM5HzYD_lE7-56" target="uu-ip6SM8MM5HzYD_lE7-23">
          <mxGeometry relative="1" as="geometry"/>
        </mxCell>
        <mxCell id="uu-ip6SM8MM5HzYD_lE7-56" value="&lt;font style=&quot;font-size: 14px&quot; color=&quot;#000000&quot;&gt;YES&lt;/font&gt;" style="ellipse;whiteSpace=wrap;html=1;strokeWidth=1;fontSize=14;fillColor=#ffcccc;strokeColor=#36393d;" vertex="1" parent="1">
          <mxGeometry x="599.5" y="627" width="38" height="27" as="geometry"/>
        </mxCell>
        <mxCell id="uu-ip6SM8MM5HzYD_lE7-57" style="edgeStyle=orthogonalEdgeStyle;rounded=0;orthogonalLoop=1;jettySize=auto;html=1;exitX=0.5;exitY=0;exitDx=0;exitDy=0;entryX=0.5;entryY=1;entryDx=0;entryDy=0;strokeWidth=2;fontSize=14;fontColor=#E6E6E6;" edge="1" parent="1" source="uu-ip6SM8MM5HzYD_lE7-58" target="uu-ip6SM8MM5HzYD_lE7-13">
          <mxGeometry relative="1" as="geometry"/>
        </mxCell>
        <mxCell id="uu-ip6SM8MM5HzYD_lE7-58" value="&lt;font style=&quot;font-size: 14px&quot; color=&quot;#000000&quot;&gt;NO&lt;/font&gt;" style="ellipse;whiteSpace=wrap;html=1;strokeWidth=1;fontSize=14;fillColor=#cdeb8b;strokeColor=#36393d;" vertex="1" parent="1">
          <mxGeometry x="681" y="563" width="38" height="27" as="geometry"/>
        </mxCell>
        <mxCell id="uu-ip6SM8MM5HzYD_lE7-59" value="&lt;font color=&quot;#000000&quot; style=&quot;color: rgb(0 , 0 , 0) ; font-size: 15px&quot;&gt;Issue with&amp;nbsp;&lt;br&gt;(&lt;/font&gt;&lt;span style=&quot;color: rgb(0 , 0 , 0) ; font-size: 15px&quot;&gt;Project A&lt;/span&gt;&lt;font color=&quot;#000000&quot; style=&quot;color: rgb(0 , 0 , 0) ; font-size: 15px&quot;&gt;)?&lt;/font&gt;" style="text;html=1;strokeColor=none;fillColor=none;align=center;verticalAlign=middle;whiteSpace=wrap;rounded=0;fontSize=14;fontColor=#E6E6E6;" vertex="1" parent="1">
          <mxGeometry x="655.5" y="619.5" width="90" height="41" as="geometry"/>
        </mxCell>
        <mxCell id="uu-ip6SM8MM5HzYD_lE7-60" style="edgeStyle=orthogonalEdgeStyle;rounded=0;orthogonalLoop=1;jettySize=auto;html=1;exitX=0.5;exitY=0;exitDx=0;exitDy=0;entryX=1;entryY=0.5;entryDx=0;entryDy=0;strokeWidth=2;fontSize=14;fontColor=#E6E6E6;" edge="1" parent="1" source="uu-ip6SM8MM5HzYD_lE7-61" target="uu-ip6SM8MM5HzYD_lE7-5">
          <mxGeometry relative="1" as="geometry"/>
        </mxCell>
        <mxCell id="uu-ip6SM8MM5HzYD_lE7-61" value="&lt;font style=&quot;font-size: 14px&quot; color=&quot;#000000&quot;&gt;NO&lt;/font&gt;" style="ellipse;whiteSpace=wrap;html=1;strokeWidth=1;fontSize=14;fillColor=#cdeb8b;strokeColor=#36393d;" vertex="1" parent="1">
          <mxGeometry x="681" y="220" width="38" height="27" as="geometry"/>
        </mxCell>
        <mxCell id="uu-ip6SM8MM5HzYD_lE7-62" style="edgeStyle=orthogonalEdgeStyle;rounded=0;orthogonalLoop=1;jettySize=auto;html=1;exitX=1;exitY=0.5;exitDx=0;exitDy=0;dashed=1;strokeWidth=2;fontSize=14;fontColor=#E6E6E6;" edge="1" parent="1" source="uu-ip6SM8MM5HzYD_lE7-63">
          <mxGeometry relative="1" as="geometry">
            <mxPoint x="820" y="620" as="targetPoint"/>
          </mxGeometry>
        </mxCell>
        <mxCell id="uu-ip6SM8MM5HzYD_lE7-63" value="&lt;font style=&quot;font-size: 14px&quot; color=&quot;#000000&quot;&gt;YES&lt;/font&gt;" style="ellipse;whiteSpace=wrap;html=1;strokeWidth=1;fontSize=14;fillColor=#ffcccc;strokeColor=#36393d;" vertex="1" parent="1">
          <mxGeometry x="762" y="277" width="38" height="27" as="geometry"/>
        </mxCell>
        <mxCell id="uu-ip6SM8MM5HzYD_lE7-64" value="" style="rhombus;whiteSpace=wrap;html=1;strokeWidth=1;fontSize=14;fillColor=#cce5ff;strokeColor=#36393d;" vertex="1" parent="1">
          <mxGeometry x="640" y="244" width="121" height="103" as="geometry"/>
        </mxCell>
        <mxCell id="uu-ip6SM8MM5HzYD_lE7-65" value="&lt;font color=&quot;#000000&quot; style=&quot;color: rgb(0 , 0 , 0) ; font-size: 15px&quot;&gt;Issue with&amp;nbsp;&lt;br&gt;(&lt;/font&gt;&lt;span style=&quot;color: rgb(0 , 0 , 0) ; font-size: 15px&quot;&gt;Sprint 1&lt;/span&gt;&lt;font color=&quot;#000000&quot; style=&quot;color: rgb(0 , 0 , 0) ; font-size: 15px&quot;&gt;)?&lt;/font&gt;" style="text;html=1;strokeColor=none;fillColor=none;align=center;verticalAlign=middle;whiteSpace=wrap;rounded=0;fontSize=14;fontColor=#E6E6E6;" vertex="1" parent="1">
          <mxGeometry x="663.5" y="273.5" width="80" height="44" as="geometry"/>
        </mxCell>
        <mxCell id="uu-ip6SM8MM5HzYD_lE7-66" value="&lt;font style=&quot;font-size: 15px&quot; color=&quot;#000000&quot;&gt;Go back to the root branch and do the fix, merge it with child branches then open a &lt;b&gt;PR&lt;/b&gt; to Pre-master -&amp;gt; master&lt;/font&gt;" style="text;html=1;strokeColor=none;fillColor=none;align=center;verticalAlign=middle;whiteSpace=wrap;rounded=0;fontSize=14;fontColor=#E6E6E6;" vertex="1" parent="1">
          <mxGeometry x="50" y="1035" width="760" height="22" as="geometry"/>
        </mxCell>
        <mxCell id="uu-ip6SM8MM5HzYD_lE7-67" style="edgeStyle=orthogonalEdgeStyle;rounded=0;orthogonalLoop=1;jettySize=auto;html=1;exitX=0.5;exitY=1;exitDx=0;exitDy=0;entryX=0.5;entryY=1;entryDx=0;entryDy=0;dashed=1;dashPattern=1 2;strokeWidth=2;fontSize=14;fontColor=#E6E6E6;" edge="1" parent="1" source="uu-ip6SM8MM5HzYD_lE7-68" target="uu-ip6SM8MM5HzYD_lE7-74">
          <mxGeometry relative="1" as="geometry"/>
        </mxCell>
        <mxCell id="uu-ip6SM8MM5HzYD_lE7-68" value="&lt;font style=&quot;font-size: 14px&quot; color=&quot;#000000&quot;&gt;NO&lt;/font&gt;" style="ellipse;whiteSpace=wrap;html=1;strokeWidth=1;fontSize=14;fillColor=#ffcccc;strokeColor=#36393d;" vertex="1" parent="1">
          <mxGeometry x="569.5" y="976" width="38" height="27" as="geometry"/>
        </mxCell>
        <mxCell id="uu-ip6SM8MM5HzYD_lE7-69" value="" style="rhombus;whiteSpace=wrap;html=1;strokeWidth=1;fontSize=14;fillColor=#cce5ff;strokeColor=#36393d;" vertex="1" parent="1">
          <mxGeometry x="528" y="874" width="121" height="103" as="geometry"/>
        </mxCell>
        <mxCell id="uu-ip6SM8MM5HzYD_lE7-70" style="edgeStyle=orthogonalEdgeStyle;rounded=0;orthogonalLoop=1;jettySize=auto;html=1;exitX=1;exitY=0.5;exitDx=0;exitDy=0;entryX=0.5;entryY=1;entryDx=0;entryDy=0;strokeWidth=2;fontSize=14;fontColor=#E6E6E6;" edge="1" parent="1" source="uu-ip6SM8MM5HzYD_lE7-71" target="uu-ip6SM8MM5HzYD_lE7-29">
          <mxGeometry relative="1" as="geometry">
            <Array as="points">
              <mxPoint x="700" y="923"/>
            </Array>
          </mxGeometry>
        </mxCell>
        <mxCell id="uu-ip6SM8MM5HzYD_lE7-71" value="&lt;font style=&quot;font-size: 14px&quot; color=&quot;#000000&quot;&gt;YES&lt;/font&gt;" style="ellipse;whiteSpace=wrap;html=1;strokeWidth=1;fontSize=14;fillColor=#cdeb8b;strokeColor=#36393d;" vertex="1" parent="1">
          <mxGeometry x="650" y="911" width="38" height="27" as="geometry"/>
        </mxCell>
        <mxCell id="uu-ip6SM8MM5HzYD_lE7-72" value="&lt;font color=&quot;#000000&quot;&gt;&lt;span style=&quot;font-size: 15px&quot;&gt;&lt;b&gt;PR&lt;/b&gt; Approved?&lt;/span&gt;&lt;/font&gt;" style="text;html=1;strokeColor=none;fillColor=none;align=center;verticalAlign=middle;whiteSpace=wrap;rounded=0;fontSize=14;fontColor=#E6E6E6;" vertex="1" parent="1">
          <mxGeometry x="548.5" y="901" width="80" height="39" as="geometry"/>
        </mxCell>
        <mxCell id="uu-ip6SM8MM5HzYD_lE7-73" style="edgeStyle=orthogonalEdgeStyle;rounded=0;orthogonalLoop=1;jettySize=auto;html=1;exitX=1;exitY=0.5;exitDx=0;exitDy=0;entryX=0;entryY=0.5;entryDx=0;entryDy=0;strokeWidth=2;fontSize=14;fontColor=#E6E6E6;" edge="1" parent="1" source="uu-ip6SM8MM5HzYD_lE7-74" target="uu-ip6SM8MM5HzYD_lE7-69">
          <mxGeometry relative="1" as="geometry"/>
        </mxCell>
        <mxCell id="uu-ip6SM8MM5HzYD_lE7-74" value="" style="rounded=0;whiteSpace=wrap;html=1;strokeWidth=1;fontSize=14;fillColor=#ffff88;strokeColor=#36393d;" vertex="1" parent="1">
          <mxGeometry x="320" y="884" width="150" height="83" as="geometry"/>
        </mxCell>
        <mxCell id="uu-ip6SM8MM5HzYD_lE7-75" value="&lt;font color=&quot;#000000&quot; style=&quot;font-size: 15px&quot;&gt;Fix &amp;amp; update PR&lt;/font&gt;" style="text;html=1;strokeColor=none;fillColor=none;align=center;verticalAlign=middle;whiteSpace=wrap;rounded=0;fontSize=14;fontColor=#E6E6E6;" vertex="1" parent="1">
          <mxGeometry x="407.5" y="997" width="170" height="22" as="geometry"/>
        </mxCell>
        <mxCell id="uu-ip6SM8MM5HzYD_lE7-76" value="&lt;font color=&quot;#1a1a1a&quot; style=&quot;font-size: 14px&quot;&gt;Pull request&lt;/font&gt;" style="text;html=1;strokeColor=none;fillColor=none;align=center;verticalAlign=middle;whiteSpace=wrap;rounded=0;fontSize=14;fontColor=#E6E6E6;rotation=-90;" vertex="1" parent="1">
          <mxGeometry x="152" y="830" width="83" height="22" as="geometry"/>
        </mxCell>
        <mxCell id="uu-ip6SM8MM5HzYD_lE7-77" value="&lt;font color=&quot;#1a1a1a&quot; style=&quot;font-size: 14px&quot;&gt;Pull request&lt;/font&gt;" style="text;html=1;strokeColor=none;fillColor=none;align=center;verticalAlign=middle;whiteSpace=wrap;rounded=0;fontSize=14;fontColor=#E6E6E6;rotation=-90;" vertex="1" parent="1">
          <mxGeometry x="223" y="770" width="83" height="22" as="geometry"/>
        </mxCell>
        <mxCell id="uu-ip6SM8MM5HzYD_lE7-78" value="&lt;font color=&quot;#1a1a1a&quot; style=&quot;font-size: 15px&quot;&gt;Pull request&lt;/font&gt;" style="text;html=1;strokeColor=none;fillColor=none;align=center;verticalAlign=middle;whiteSpace=wrap;rounded=0;fontSize=14;fontColor=#E6E6E6;rotation=-90;" vertex="1" parent="1">
          <mxGeometry x="317.5" y="796" width="83" height="22" as="geometry"/>
        </mxCell>
        <mxCell id="uu-ip6SM8MM5HzYD_lE7-79" value="&lt;font style=&quot;font-size: 16px&quot;&gt;CI&lt;/font&gt;" style="text;html=1;align=center;verticalAlign=middle;whiteSpace=wrap;rounded=0;fontSize=14;fontStyle=0;fillColor=#C8D7E3;strokeColor=#23445d;" vertex="1" parent="1">
          <mxGeometry x="620" y="826" width="160" height="22" as="geometry"/>
        </mxCell>
        <mxCell id="uu-ip6SM8MM5HzYD_lE7-80" value="&lt;font style=&quot;font-size: 16px&quot;&gt;CI&lt;/font&gt;" style="text;html=1;align=center;verticalAlign=middle;whiteSpace=wrap;rounded=0;fontSize=14;fontStyle=0;fillColor=#C8D7E3;strokeColor=#23445d;" vertex="1" parent="1">
          <mxGeometry x="619" y="485" width="162" height="22" as="geometry"/>
        </mxCell>
        <mxCell id="uu-ip6SM8MM5HzYD_lE7-81" value="&lt;font color=&quot;#1a1a1a&quot; style=&quot;font-size: 13px&quot;&gt;After each Live branch update, update all child branches&lt;/font&gt;" style="text;html=1;strokeColor=none;fillColor=none;align=center;verticalAlign=middle;whiteSpace=wrap;rounded=0;fontSize=14;fontColor=#E6E6E6;rotation=0;" vertex="1" parent="1">
          <mxGeometry x="20" y="190" width="91" height="152" as="geometry"/>
        </mxCell>
        <mxCell id="uu-ip6SM8MM5HzYD_lE7-82" value="&lt;font color=&quot;#000000&quot;&gt;Creating &lt;br&gt;New&amp;nbsp;&lt;span style=&quot;font-size: 15px&quot;&gt;&lt;b&gt;&lt;u&gt;P&lt;/u&gt;&lt;/b&gt;ull &lt;b&gt;&lt;u&gt;R&lt;/u&gt;&lt;/b&gt;equest&lt;/span&gt;&lt;/font&gt;" style="text;html=1;strokeColor=none;fillColor=none;align=center;verticalAlign=middle;whiteSpace=wrap;rounded=0;fontSize=14;fontColor=#E6E6E6;" vertex="1" parent="1">
          <mxGeometry x="335" y="899" width="120" height="22" as="geometry"/>
        </mxCell>
        <mxCell id="uu-ip6SM8MM5HzYD_lE7-83" value="&lt;font color=&quot;#808080&quot; style=&quot;font-size: 13px&quot;&gt;Make sure you have the latest &lt;b&gt;Live&lt;/b&gt;&amp;nbsp;branch code&lt;/font&gt;" style="text;html=1;strokeColor=none;fillColor=none;align=center;verticalAlign=middle;whiteSpace=wrap;rounded=0;fontSize=14;fontColor=#E6E6E6;" vertex="1" parent="1">
          <mxGeometry x="324" y="919" width="142" height="46" as="geometry"/>
        </mxCell>
        <mxCell id="uu-ip6SM8MM5HzYD_lE7-84" value="&lt;font color=&quot;#000000&quot;&gt;Merge&amp;nbsp;&lt;/font&gt;" style="text;html=1;strokeColor=none;fillColor=none;align=center;verticalAlign=middle;whiteSpace=wrap;rounded=0;fontSize=14;fontColor=#E6E6E6;" vertex="1" parent="1">
          <mxGeometry x="708.5" y="884" width="40" height="22" as="geometry"/>
        </mxCell>
        <mxCell id="uu-ip6SM8MM5HzYD_lE7-85" value="&lt;font color=&quot;#000000&quot;&gt;Merge&amp;nbsp;&lt;/font&gt;" style="text;html=1;strokeColor=none;fillColor=none;align=center;verticalAlign=middle;whiteSpace=wrap;rounded=0;fontSize=14;fontColor=#E6E6E6;" vertex="1" parent="1">
          <mxGeometry x="709" y="536" width="40" height="22" as="geometry"/>
        </mxCell>
        <mxCell id="uu-ip6SM8MM5HzYD_lE7-86" value="" style="rounded=1;whiteSpace=wrap;html=1;strokeWidth=1;fillColor=#C8D7E3;fontSize=14;fontColor=#E6E6E6;" vertex="1" parent="1">
          <mxGeometry x="150" y="150" width="54" height="32" as="geometry"/>
        </mxCell>
        <mxCell id="uu-ip6SM8MM5HzYD_lE7-87" value="&lt;font color=&quot;#333333&quot; style=&quot;font-size: 13px&quot;&gt;Branch&lt;/font&gt;" style="text;html=1;strokeColor=none;fillColor=none;align=center;verticalAlign=middle;whiteSpace=wrap;rounded=0;fontSize=14;fontColor=#E6E6E6;" vertex="1" parent="1">
          <mxGeometry x="170" y="155" width="15" height="22" as="geometry"/>
        </mxCell>
        <mxCell id="uu-ip6SM8MM5HzYD_lE7-88" value="" style="rounded=1;whiteSpace=wrap;html=1;strokeWidth=1;fillColor=#C8D7E3;fontSize=14;fontColor=#E6E6E6;" vertex="1" parent="1">
          <mxGeometry x="601" y="370" width="54" height="32" as="geometry"/>
        </mxCell>
        <mxCell id="uu-ip6SM8MM5HzYD_lE7-89" value="&lt;font color=&quot;#333333&quot; style=&quot;font-size: 13px&quot;&gt;Branch&lt;/font&gt;" style="text;html=1;strokeColor=none;fillColor=none;align=center;verticalAlign=middle;whiteSpace=wrap;rounded=0;fontSize=14;fontColor=#E6E6E6;" vertex="1" parent="1">
          <mxGeometry x="620.5" y="373.5" width="15" height="22" as="geometry"/>
        </mxCell>
        <mxCell id="uu-ip6SM8MM5HzYD_lE7-90" value="" style="rounded=1;whiteSpace=wrap;html=1;strokeWidth=1;fillColor=#C8D7E3;fontSize=14;fontColor=#E6E6E6;" vertex="1" parent="1">
          <mxGeometry x="596.5" y="710" width="54" height="32" as="geometry"/>
        </mxCell>
        <mxCell id="uu-ip6SM8MM5HzYD_lE7-91" value="&lt;font color=&quot;#333333&quot; style=&quot;font-size: 13px&quot;&gt;Branch&lt;/font&gt;" style="text;html=1;strokeColor=none;fillColor=none;align=center;verticalAlign=middle;whiteSpace=wrap;rounded=0;fontSize=14;fontColor=#E6E6E6;" vertex="1" parent="1">
          <mxGeometry x="616" y="714" width="15" height="22" as="geometry"/>
        </mxCell>
      </root>
    </mxGraphModel>
  </diagram>
  <diagram name="Page-2" id="0u62vH1HT7s3-BziP0UG">
    <mxGraphModel dx="2066" dy="1154" grid="1" gridSize="10" guides="1" tooltips="1" connect="1" arrows="1" fold="1" page="1" pageScale="1" pageWidth="850" pageHeight="1100" math="0" shadow="0">
      <root>
        <mxCell id="CvLp3zkqyE-je-o_cn6F-0"/>
        <mxCell id="CvLp3zkqyE-je-o_cn6F-1" parent="CvLp3zkqyE-je-o_cn6F-0"/>
      </root>
    </mxGraphModel>
  </diagram>
</mxfile>
